<?xml version="1.0" standalone="no"?>
<!DOCTYPE svg PUBLIC "-//W3C//DTD SVG 20010904//EN"
 "http://www.w3.org/TR/2001/REC-SVG-20010904/DTD/svg10.dtd">
<svg version="1.0" xmlns="http://www.w3.org/2000/svg"
 width="120.000000pt" height="120.000000pt" viewBox="0 0 120.000000 120.000000"
 preserveAspectRatio="xMidYMid meet">
<metadata>
Created by potrace 1.14, written by Peter Selinger 2001-2017
</metadata>
<g transform="translate(0.000000,120.000000) scale(0.100000,-0.100000)"
fill="#000000" stroke="none">
<path d="M507 1084 c-3 -4 -70 -11 -161 -18 -38 -4 -56 -11 -85 -39 -20 -18
-65 -60 -100 -93 -125 -115 -131 -122 -131 -146 0 -12 12 -36 26 -53 23 -26
44 -51 121 -142 10 -11 34 -40 52 -63 19 -24 40 -48 46 -54 5 -6 30 -36 55
-66 25 -30 47 -57 50 -60 3 -3 30 -34 60 -70 30 -36 58 -66 63 -68 4 -2 7 -8
7 -12 0 -5 10 -19 23 -32 12 -13 32 -36 45 -52 l23 -30 15 22 c8 11 20 27 27
34 7 7 69 81 137 163 69 83 132 159 141 170 10 11 43 51 76 90 32 38 63 75 68
81 6 7 21 26 35 44 14 18 32 40 41 49 47 47 45 53 -50 148 -178 177 -159 164
-256 178 -22 4 -56 8 -75 11 -42 6 -249 12 -253 8z"/>
</g>
</svg>
