<svg width="34" height="22" viewBox="0 0 34 22" fill="none" xmlns="http://www.w3.org/2000/svg">
<path d="M29.5816 21.192C29.7717 21.3928 30.0873 21.4008 30.2864 21.21L33.5312 18.1003C33.7303 17.9095 33.7376 17.5921 33.5474 17.3913C33.3573 17.1906 33.0417 17.1826 32.8426 17.3734L29.9584 20.1375L27.2041 17.2299C27.0139 17.0291 26.6984 17.0211 26.4993 17.2119C26.3002 17.4028 26.2929 17.7202 26.483 17.9209L29.5816 21.192ZM1.03267 1.22684C15.6145 0.296269 22.6641 5.27214 26.1012 10.3629C27.832 12.9264 28.6689 15.5509 29.0724 17.5378C29.2739 18.5304 29.3667 19.3609 29.4091 19.9406C29.4303 20.2303 29.4389 20.4571 29.4422 20.6097C29.4439 20.6861 29.4442 20.7438 29.4441 20.7817C29.4441 20.8006 29.444 20.8145 29.4439 20.8232C29.4438 20.8276 29.4438 20.8307 29.4438 20.8325C29.4437 20.8334 29.4437 20.8339 29.4437 20.8341C29.4437 20.8343 29.4437 20.8342 29.4437 20.8342C29.4437 20.8341 29.4437 20.8338 29.9421 20.8465C30.4405 20.8592 30.4405 20.8588 30.4405 20.8583C30.4405 20.858 30.4405 20.8574 30.4405 20.8569C30.4406 20.8558 30.4406 20.8543 30.4406 20.8525C30.4407 20.849 30.4408 20.8441 30.4408 20.8379C30.441 20.8255 30.4411 20.8079 30.4412 20.7853C30.4412 20.7399 30.4408 20.6744 30.439 20.5901C30.4353 20.4214 30.426 20.1773 30.4034 19.8692C30.3584 19.2532 30.2605 18.3796 30.0492 17.3392C29.627 15.2599 28.7495 12.502 26.9256 9.80062C23.2532 4.36149 15.8317 -0.722715 0.967319 0.225889L1.03267 1.22684Z" fill="black"/>
</svg>
