<svg width="33" height="38" viewBox="0 0 33 38" fill="none" xmlns="http://www.w3.org/2000/svg">
<path d="M32.1707 32.8013C32.3806 32.9807 32.4052 33.2963 32.2258 33.5062L29.3013 36.9264C29.1219 37.1363 28.8062 37.1609 28.5964 36.9815C28.3865 36.802 28.3618 36.4864 28.5413 36.2765L31.1408 33.2364L28.1007 30.6368C27.8908 30.4574 27.8661 30.1418 28.0456 29.9319C28.225 29.722 28.5407 29.6973 28.7505 29.8768L32.1707 32.8013ZM2.18976 1.11151C0.19734 9.82022 1.08174 16.0985 3.46091 20.6312C5.84117 25.1659 9.75433 28.0234 13.9536 29.8177C18.1561 31.6134 22.6192 32.3322 26.0434 32.5995C27.7532 32.733 29.1982 32.7536 30.2143 32.7408C30.7222 32.7345 31.1226 32.7198 31.395 32.7068C31.5312 32.7003 31.6353 32.6942 31.7048 32.6898C31.7395 32.6876 31.7656 32.6858 31.7827 32.6846C31.7913 32.684 31.7976 32.6835 31.8016 32.6832C31.8036 32.683 31.8051 32.6829 31.806 32.6829C31.8064 32.6828 31.8066 32.6828 31.8068 32.6828C31.8069 32.6828 31.8068 32.6828 31.8458 33.1813C31.8847 33.6798 31.8843 33.6798 31.8838 33.6798C31.8835 33.6799 31.8828 33.6799 31.8821 33.68C31.8806 33.6801 31.8786 33.6802 31.876 33.6804C31.8708 33.6808 31.8633 33.6814 31.8535 33.6821C31.834 33.6834 31.8054 33.6854 31.7681 33.6878C31.6936 33.6925 31.5843 33.6989 31.4427 33.7056C31.1596 33.7192 30.7474 33.7342 30.2268 33.7408C29.1859 33.7538 27.7103 33.7327 25.9656 33.5965C22.4808 33.3244 17.8996 32.5913 13.5606 30.7373C9.21839 28.8819 5.09287 25.8919 2.57548 21.0959C0.0569891 16.2979 -0.815235 9.76225 1.21494 0.888489L2.18976 1.11151Z" fill="black"/>
</svg>
