<svg width="37" height="36" viewBox="0 0 37 36" fill="none" xmlns="http://www.w3.org/2000/svg">
<path d="M31.5528 35.1552C31.7119 35.3809 32.0238 35.435 32.2496 35.2759L35.9282 32.6841C36.154 32.5251 36.208 32.2131 36.049 31.9874C35.8899 31.7617 35.578 31.7076 35.3523 31.8666L32.0823 34.1705L29.7785 30.9005C29.6195 30.6748 29.3075 30.6207 29.0818 30.7798C28.8561 30.9388 28.802 31.2507 28.961 31.4765L31.5528 35.1552ZM1.02122 2.36359C10.3169 1.24805 16.8201 2.74239 21.3628 5.55019C25.9047 8.35754 28.5476 12.5155 30.0518 16.8437C31.5577 21.177 31.9145 25.6618 31.8913 29.0747C31.8797 30.7788 31.7734 32.2099 31.6703 33.2135C31.6187 33.7152 31.5679 34.1096 31.5303 34.3775C31.5115 34.5115 31.4959 34.6138 31.4852 34.6819C31.4798 34.716 31.4756 34.7416 31.4729 34.7583C31.4715 34.7667 31.4704 34.7729 31.4698 34.7768C31.4694 34.7788 31.4692 34.7802 31.4691 34.781C31.469 34.7814 31.469 34.7816 31.4689 34.7818C31.4689 34.7819 31.4689 34.7818 31.9616 34.8672C32.4542 34.9526 32.4543 34.9522 32.4544 34.9517C32.4545 34.9513 32.4546 34.9507 32.4547 34.9499C32.4549 34.9485 32.4553 34.9465 32.4557 34.9439C32.4566 34.9387 32.4578 34.9313 32.4594 34.9217C32.4626 34.9024 32.4672 34.8743 32.473 34.8375C32.4846 34.7641 32.5009 34.6563 32.5206 34.5167C32.5598 34.2375 32.6121 33.8307 32.665 33.3157C32.7708 32.2861 32.8794 30.8227 32.8913 29.0815C32.9149 25.6037 32.553 20.9947 30.9964 16.5155C29.438 12.0312 26.6747 7.65783 21.8885 4.69957C17.1031 1.74176 10.3563 0.236148 0.902067 1.37071L1.02122 2.36359Z" fill="black"/>
</svg>
