<svg width="36" height="39" viewBox="0 0 36 39" fill="none" xmlns="http://www.w3.org/2000/svg">
<path d="M24.8949 20.9184C27.6101 18.8408 29.3684 15.5771 29.3684 11.8947C29.3684 5.61652 24.2782 0.526306 18 0.526306C11.7218 0.526306 6.63158 5.61652 6.63158 11.8947C6.63158 15.5771 8.3899 18.8408 11.1051 20.9184C4.58526 23.7662 0 30.5247 0 38.421H36C36 30.5247 31.4147 23.7662 24.8949 20.9184ZM10.4211 11.8947C10.4211 7.71589 13.8212 4.31578 18 4.31578C22.1788 4.31578 25.5789 7.71589 25.5789 11.8947C25.5789 16.0736 22.1788 19.4737 18 19.4737C13.8212 19.4737 10.4211 16.0736 10.4211 11.8947ZM18 23.2631C24.6098 23.2631 30.1794 28.1014 31.7605 34.6316H4.23947C5.82063 28.1014 11.3902 23.2631 18 23.2631Z" fill="black"/>
</svg>
