<svg width="41" height="35" viewBox="0 0 41 35" fill="none" xmlns="http://www.w3.org/2000/svg">
<path fill-rule="evenodd" clip-rule="evenodd" d="M39.2948 0.333859C39.853 0.704485 40.1885 1.32999 40.1885 2.00001V27.3931C40.1885 28.1978 39.7062 28.9241 38.9645 29.2364L26.9017 34.315C26.4054 34.5239 25.8459 34.5239 25.3496 34.315L14.0628 29.5631L2.77605 34.315C2.15853 34.575 1.45185 34.5085 0.893679 34.1379C0.335505 33.7672 0 33.1417 0 32.4717V7.07862C0 6.27391 0.482287 5.54758 1.22395 5.23533L13.2868 0.156711C13.7831 -0.052227 14.3426 -0.052227 14.8389 0.156711L26.1257 4.9086L37.4124 0.156711C38.03 -0.103273 38.7366 -0.0367684 39.2948 0.333859ZM24.1257 8.40662L16.0628 5.01206V26.0651L24.1257 29.4597V8.40662ZM28.1257 29.4597L36.1885 26.0651V5.01206L28.1257 8.40662V29.4597ZM12.0628 26.0651V5.01206L4 8.40662V29.4597L12.0628 26.0651Z" fill="#0D0D0D"/>
</svg>
