<svg xmlns="http://www.w3.org/2000/svg" width="41" height="35" fill="none"><path fill="#0D0D0D" fill-rule="evenodd" d="M39.295.334A2 2 0 0 1 40.188 2v25.393a2 2 0 0 1-1.224 1.843l-12.062 5.079a2 2 0 0 1-1.552 0l-11.287-4.752-11.287 4.752A2 2 0 0 1 0 32.472V7.079a2 2 0 0 1 1.224-1.844L13.287.157a2 2 0 0 1 1.552 0l11.287 4.752L37.412.157a2 2 0 0 1 1.883.177Zm-15.17 8.073-8.062-3.395v21.053l8.063 3.395V8.407Zm4 21.053 8.063-3.395V5.012l-8.062 3.395V29.46Zm-16.062-3.395V5.012L4 8.407V29.46l8.063-3.395Z" clip-rule="evenodd"/></svg>