<svg xmlns="http://www.w3.org/2000/svg" width="31" height="37" fill="none"><path fill="#0D0D0D" d="M15.5 36.615a1.352 1.352 0 0 1-.803-.255C14.11 35.988.323 26.725.323 15.465a15.177 15.177 0 1 1 30.354 0c0 11.26-13.708 20.523-14.374 20.895a1.352 1.352 0 0 1-.803.255Zm0-33.292A12.2 12.2 0 0 0 3.26 15.465c0 8.244 9.38 15.784 12.24 17.88 2.86-2.096 12.24-9.636 12.24-17.88A12.2 12.2 0 0 0 15.5 3.323Z"/><path fill="#0D0D0D" d="M15.5 19.969a5.385 5.385 0 1 1 0-10.77 5.385 5.385 0 0 1 0 10.77Zm0-7.834a2.448 2.448 0 1 0 0 4.897 2.448 2.448 0 0 0 0-4.897Z"/></svg>